# xmcd
#
# Track frame offsets: 
#        150
#        31138
#        39513
#        53132
#        68362
#        85575
#        108276
#        120916
#        126365
#        139046
#        152794
#        169086
#
# Disc length: 2382 seconds
#
# Revision: 0
# Processed by: cddbd v1.5.2PL0 Copyright (c) Steve Scherf et al.
# Submitted via: ExactAudioCopy v0.99pb4
#
DISCID=8d094c0c
DTITLE=Rinf - Chaosjugend Strasse
DYEAR=2008
DGENRE=New Wave
TTITLE0=Mexico
TTITLE1=Rennen
TTITLE2=Tropical Nacht
TTITLE3=Was Besonders
TTITLE4=Warmes U-Bahn
TTITLE5=Danke Mami
TTITLE6=Bulldog
TTITLE7=Dorian Gray
TTITLE8=Otto Weininger
TTITLE9=Linoleum
TTITLE10=Sex Machine
TTITLE11=Bleib Mit Mir
EXTD=
EXTT0=
EXTT1=
EXTT2=
EXTT3=
EXTT4=
EXTT5=
EXTT6=
EXTT7=
EXTT8=
EXTT9=
EXTT10=
EXTT11=
PLAYORDER=
